<svg width="71" height="71" viewBox="0 0 71 71" fill="none" xmlns="http://www.w3.org/2000/svg">
<path d="M41.3082 54.999H25.2379C24.3175 54.999 23.4348 54.6334 22.784 53.9826C22.1332 53.3318 21.7676 52.4491 21.7676 51.5287C21.7676 50.6083 22.1332 49.7256 22.784 49.0748C23.4348 48.424 24.3175 48.0583 25.2379 48.0583H28.0953C28.7383 48.0343 29.3469 47.762 29.7934 47.2986C30.2398 46.8352 30.4892 46.2168 30.4892 45.5733C30.4892 44.9299 30.2398 44.3115 29.7934 43.8481C29.3469 43.3847 28.7383 43.1124 28.0953 43.0883H16.5552C16.4174 43.0883 16.2852 43.0336 16.1878 42.9362C16.0904 42.8388 16.0356 42.7066 16.0356 42.5688C16.0356 42.431 16.0904 42.2989 16.1878 42.2015C16.2852 42.1041 16.4174 42.0493 16.5552 42.0493H28.0953C29.0108 42.078 29.8792 42.4619 30.5166 43.1196C31.1541 43.7774 31.5105 44.6574 31.5105 45.5733C31.5105 46.4893 31.1541 47.3693 30.5166 48.0271C29.8792 48.6848 29.0108 49.0687 28.0953 49.0974H25.2379C24.5931 49.0974 23.9747 49.3535 23.5187 49.8095C23.0628 50.2654 22.8066 50.8839 22.8066 51.5287C22.8066 52.1735 23.0628 52.7919 23.5187 53.2479C23.9747 53.7038 24.5931 53.96 25.2379 53.96H41.3082C41.446 53.96 41.5781 54.0147 41.6755 54.1122C41.773 54.2096 41.8277 54.3417 41.8277 54.4795C41.8277 54.6173 41.773 54.7494 41.6755 54.8469C41.5781 54.9443 41.446 54.999 41.3082 54.999Z" fill="#1682FC"/>
<path d="M52.8654 34.9354L42.347 51.1892C42.2595 51.3228 42.14 51.4325 41.9994 51.5084C41.8588 51.5844 41.7016 51.6241 41.5418 51.6241C41.382 51.6241 41.2248 51.5844 41.0842 51.5084C40.9436 51.4325 40.8241 51.3228 40.7366 51.1892L30.2182 34.9354C29.0878 33.1914 28.3765 31.2093 28.1401 29.1445C27.7849 32.2493 28.5195 35.381 30.2182 38.0039L40.5218 53.9253C40.6321 54.0954 40.7832 54.2352 40.9614 54.332C41.1395 54.4288 41.3391 54.4795 41.5418 54.4795C41.7445 54.4795 41.9441 54.4288 42.1222 54.332C42.3004 54.2352 42.4515 54.0954 42.5618 53.9253L52.8654 38.0039C54.5674 35.3823 55.3022 32.2495 54.9435 29.1445C54.7103 31.2101 53.9988 33.1928 52.8654 34.9354Z" fill="#E0E1E2"/>
<path d="M41.5436 54.9989C41.2536 54.999 40.9682 54.9265 40.7135 54.788C40.4588 54.6494 40.2429 54.4492 40.0855 54.2057L29.7818 38.2879C28.4096 36.172 27.6337 33.7251 27.5359 31.2051C27.4381 28.6851 28.022 26.1854 29.2261 23.9695C30.4301 21.7536 32.2097 19.9036 34.3772 18.6145C36.5448 17.3254 39.0199 16.645 41.5418 16.645C44.0637 16.645 46.5389 17.3254 48.7064 18.6145C50.874 19.9036 52.6535 21.7536 53.8576 23.9695C55.0616 26.1854 55.6455 28.6851 55.5477 31.2051C55.4499 33.7251 54.674 36.172 53.3019 38.2879L42.9982 54.2057C42.8413 54.449 42.626 54.649 42.3719 54.7875C42.1178 54.9261 41.833 54.9987 41.5436 54.9989ZM41.5436 17.7048C39.2108 17.7047 36.9211 18.3338 34.9158 19.5257C32.9105 20.7177 31.2638 22.4284 30.1491 24.4776C29.0344 26.5269 28.493 28.8388 28.582 31.1699C28.671 33.501 29.387 35.765 30.6546 37.7233L40.9582 53.6412C41.0209 53.7392 41.1072 53.8198 41.2092 53.8756C41.3111 53.9315 41.4256 53.9607 41.5418 53.9607C41.6581 53.9607 41.7725 53.9315 41.8745 53.8756C41.9765 53.8198 42.0628 53.7392 42.1254 53.6412L52.4291 37.7233C54.0424 35.2319 54.7526 32.2625 54.4413 29.3107C54.1073 26.1237 52.604 23.1735 50.222 21.0301C47.8399 18.8866 44.748 17.7019 41.5436 17.7048Z" fill="#2E3A58"/>
<path d="M41.5816 39.206C41.4049 39.206 41.2248 39.1991 41.0517 39.1922C41.0289 39.1908 41.0066 39.185 40.9861 39.1751C40.9656 39.1651 40.9473 39.1512 40.9322 39.1342C40.917 39.1171 40.9054 39.0972 40.898 39.0757C40.8906 39.0542 40.8875 39.0313 40.8889 39.0086C40.8897 38.9857 40.8952 38.9632 40.905 38.9424C40.9148 38.9217 40.9287 38.9032 40.9459 38.888C40.963 38.8728 40.9831 38.8612 41.0048 38.8539C41.0266 38.8467 41.0496 38.8439 41.0725 38.8458C41.2387 38.8562 41.4119 38.8597 41.5816 38.8597C42.0912 38.8593 42.5999 38.8153 43.102 38.7281C43.1244 38.7236 43.1474 38.7238 43.1697 38.7286C43.192 38.7335 43.2131 38.7428 43.2316 38.7561C43.2501 38.7695 43.2657 38.7864 43.2774 38.806C43.289 38.8256 43.2965 38.8474 43.2994 38.8701C43.3075 38.9151 43.2975 38.9614 43.2716 38.999C43.2456 39.0367 43.2058 39.0625 43.1609 39.0709C42.6393 39.161 42.1109 39.2062 41.5816 39.206ZM39.0186 38.832C39.0022 38.8329 38.9857 38.8305 38.9702 38.825C38.293 38.6228 37.642 38.3415 37.0306 37.9869C37.0086 37.9769 36.9888 37.9624 36.9727 37.9443C36.9566 37.9262 36.9444 37.905 36.937 37.8819C36.9297 37.8588 36.9272 37.8344 36.9298 37.8104C36.9324 37.7863 36.9401 37.763 36.9523 37.742C36.9644 37.7211 36.9809 37.7029 37.0005 37.6887C37.0202 37.6746 37.0425 37.6646 37.0663 37.6596C37.09 37.6546 37.1145 37.6547 37.1382 37.6597C37.1619 37.6648 37.1842 37.6748 37.2038 37.689C37.7927 38.0287 38.4192 38.2983 39.0706 38.4925C39.1143 38.5069 39.1507 38.5377 39.1721 38.5784C39.1934 38.6192 39.198 38.6667 39.1849 38.7107C39.1738 38.7461 39.1516 38.7769 39.1217 38.7987C39.0918 38.8205 39.0557 38.8322 39.0186 38.832ZM45.1177 38.4787C45.0838 38.4793 45.0505 38.4697 45.0221 38.4512C44.9937 38.4326 44.9715 38.406 44.9584 38.3748C44.9487 38.354 44.9434 38.3314 44.9427 38.3084C44.9421 38.2854 44.9461 38.2626 44.9545 38.2412C44.9629 38.2198 44.9756 38.2004 44.9917 38.1841C45.0079 38.1677 45.0272 38.1549 45.0484 38.1462C45.6721 37.8756 46.2625 37.5339 46.8079 37.128C46.8263 37.1145 46.8471 37.1048 46.8693 37.0994C46.8915 37.0941 46.9145 37.0931 46.937 37.0967C46.9595 37.1002 46.9811 37.1081 47.0006 37.1201C47.02 37.132 47.0369 37.1476 47.0503 37.1661C47.0637 37.1842 47.0733 37.2048 47.0786 37.2267C47.084 37.2486 47.0849 37.2713 47.0813 37.2935C47.0778 37.3158 47.0698 37.3371 47.058 37.3562C47.0461 37.3754 47.0306 37.392 47.0122 37.405C46.446 37.8283 45.8323 38.184 45.1835 38.4648C45.1629 38.4744 45.1404 38.4792 45.1177 38.4787ZM35.4548 36.7712C35.4107 36.771 35.3685 36.7536 35.337 36.7227C34.8218 36.2386 34.365 35.6957 33.9759 35.1053C33.9507 35.0667 33.9418 35.0197 33.9512 34.9746C33.9606 34.9294 33.9876 34.8899 34.0261 34.8646C34.0647 34.8394 34.1117 34.8305 34.1569 34.8399C34.202 34.8493 34.2416 34.8763 34.2668 34.9148C34.6413 35.4824 35.0794 36.0053 35.5725 36.4734C35.5891 36.4887 35.6025 36.5072 35.6118 36.5278C35.6212 36.5483 35.6263 36.5706 35.627 36.5931C35.6276 36.6157 35.6238 36.6382 35.6156 36.6593C35.6074 36.6803 35.5952 36.6996 35.5795 36.7158C35.5638 36.7333 35.5446 36.7474 35.5231 36.7569C35.5016 36.7665 35.4783 36.7713 35.4548 36.7712ZM48.4184 36.0197C48.3775 36.0202 48.3379 36.0054 48.3075 35.9781C48.29 35.9637 48.2755 35.946 48.2649 35.9259C48.2543 35.9059 48.2479 35.8839 48.2459 35.8613C48.244 35.8387 48.2466 35.8159 48.2536 35.7943C48.2606 35.7728 48.2719 35.7528 48.2867 35.7357C48.7234 35.2135 49.0988 34.6429 49.4054 34.0351C49.4262 33.9943 49.4622 33.9634 49.5057 33.9492C49.5492 33.9349 49.5966 33.9384 49.6375 33.9589C49.6776 33.9804 49.7079 34.0164 49.7221 34.0597C49.7363 34.1029 49.7333 34.1499 49.7137 34.191C49.3948 34.8225 49.0044 35.4152 48.55 35.9573C48.534 35.9768 48.5139 35.9926 48.4912 36.0033C48.4684 36.0141 48.4435 36.0197 48.4184 36.0197ZM33.1897 33.3321C33.1544 33.3311 33.1201 33.3197 33.0911 33.2994C33.0622 33.2791 33.0398 33.2507 33.0269 33.2178C32.7874 32.5528 32.6247 31.8625 32.5421 31.1605C32.537 31.1146 32.5504 31.0685 32.5793 31.0325C32.6082 30.9964 32.6503 30.9733 32.6962 30.9683C32.7421 30.9632 32.7882 30.9766 32.8242 31.0055C32.8603 31.0344 32.8834 31.0765 32.8884 31.1224C32.9645 31.7976 33.1202 32.4614 33.3525 33.1C33.3681 33.1432 33.3659 33.1908 33.3464 33.2323C33.3269 33.2739 33.2918 33.306 33.2486 33.3217C33.2298 33.3287 33.2098 33.3323 33.1897 33.3321ZM50.2678 32.3381H50.2297C50.2074 32.3331 50.1862 32.3239 50.1675 32.3107C50.1488 32.2976 50.1328 32.2809 50.1206 32.2616C50.1084 32.2423 50.1001 32.2207 50.0962 32.1982C50.0924 32.1756 50.093 32.1525 50.0981 32.1303C50.2546 31.4686 50.3337 30.791 50.3336 30.1111C50.3331 29.4326 50.2552 28.7563 50.1016 28.0954C50.0912 28.0508 50.0988 28.004 50.1228 27.9651C50.1468 27.9261 50.1852 27.8983 50.2297 27.8876C50.2743 27.8772 50.3211 27.8848 50.36 27.9088C50.399 27.9328 50.4268 27.9712 50.4375 28.0157C50.7607 29.3951 50.7607 30.8305 50.4375 32.2099C50.4275 32.2471 50.4054 32.2799 50.3747 32.3031C50.3439 32.3263 50.3063 32.3386 50.2678 32.3381ZM32.7152 29.2418H32.6945C32.6488 29.2357 32.6073 29.212 32.5788 29.1758C32.5503 29.1396 32.5371 29.0936 32.5421 29.0478C32.6246 28.3455 32.7885 27.6551 33.0304 26.9905C33.046 26.9474 33.0782 26.9122 33.1197 26.8927C33.1613 26.8732 33.2089 26.871 33.2521 26.8866C33.2949 26.9037 33.3296 26.9366 33.3489 26.9785C33.3683 27.0204 33.3708 27.0681 33.356 27.1118C33.1226 27.7502 32.9656 28.414 32.8884 29.0894C32.8826 29.1313 32.8619 29.1698 32.8301 29.1977C32.7983 29.2257 32.7576 29.2413 32.7152 29.2418ZM49.5613 26.2771C49.5293 26.2771 49.4979 26.2684 49.4704 26.2519C49.443 26.2354 49.4205 26.2118 49.4054 26.1836C49.1008 25.5765 48.7265 25.007 48.2902 24.4865C48.2604 24.4516 48.2456 24.4063 48.2492 24.3605C48.2527 24.3147 48.2743 24.2722 48.3093 24.2423C48.3442 24.2125 48.3895 24.1977 48.4353 24.2013C48.4811 24.2049 48.5236 24.2265 48.5534 24.2614C49.0082 24.8032 49.3987 25.396 49.7171 26.0277C49.7272 26.0482 49.7331 26.0704 49.7345 26.0932C49.736 26.1159 49.7329 26.1387 49.7255 26.1603C49.7181 26.1818 49.7065 26.2017 49.6914 26.2188C49.6763 26.2359 49.658 26.2498 49.6375 26.2598C49.6141 26.2724 49.5878 26.2784 49.5613 26.2771ZM34.1248 25.3731C34.0902 25.3725 34.0564 25.3617 34.0279 25.342C33.9899 25.3166 33.9635 25.2772 33.9544 25.2325C33.9453 25.1877 33.9543 25.1412 33.9794 25.103C34.3684 24.5126 34.8252 23.9698 35.3405 23.4856C35.3567 23.4682 35.3763 23.4544 35.3981 23.445C35.4199 23.4356 35.4434 23.4307 35.4671 23.4307C35.4909 23.4308 35.5144 23.4357 35.5361 23.4451C35.5579 23.4546 35.5775 23.4685 35.5937 23.4859C35.6098 23.5032 35.6223 23.5237 35.6302 23.5461C35.6381 23.5685 35.6413 23.5923 35.6397 23.616C35.638 23.6396 35.6315 23.6627 35.6206 23.6838C35.6096 23.7049 35.5945 23.7235 35.576 23.7384C35.0838 24.2061 34.6458 24.7277 34.2703 25.2935C34.2544 25.3176 34.2329 25.3375 34.2075 25.3514C34.1821 25.3653 34.1538 25.3728 34.1248 25.3731ZM46.9152 23.1254C46.878 23.1239 46.842 23.1119 46.8113 23.0907C46.267 22.6823 45.6765 22.3393 45.0519 22.069C45.0287 22.0617 45.0073 22.0496 44.9891 22.0335C44.9709 22.0173 44.9562 21.9976 44.9462 21.9754C44.9361 21.9532 44.9309 21.9292 44.9307 21.9049C44.9306 21.8805 44.9356 21.8564 44.9454 21.8342C44.9552 21.8119 44.9695 21.7919 44.9876 21.7756C45.0056 21.7592 45.0268 21.7469 45.05 21.7393C45.0731 21.7317 45.0976 21.7291 45.1218 21.7316C45.146 21.7341 45.1694 21.7417 45.1905 21.7539C45.8394 22.033 46.4531 22.3875 47.0191 22.8102C47.0373 22.8239 47.0527 22.8409 47.0642 22.8605C47.0758 22.8801 47.0834 22.9017 47.0867 22.9243C47.0899 22.9468 47.0886 22.9697 47.083 22.9917C47.0773 23.0138 47.0674 23.0345 47.0538 23.0526C47.0382 23.075 47.0175 23.0933 46.9934 23.1059C46.9693 23.1186 46.9425 23.1253 46.9152 23.1254ZM37.1207 22.547C37.0829 22.5466 37.0463 22.5339 37.0164 22.5107C36.9865 22.4876 36.965 22.4553 36.9552 22.4188C36.9454 22.3823 36.9478 22.3436 36.9621 22.3086C36.9763 22.2736 37.0016 22.2442 37.0341 22.2249C37.6458 21.8709 38.2967 21.5896 38.9736 21.3867C38.9957 21.3798 39.0189 21.3774 39.0419 21.3797C39.0649 21.3819 39.0872 21.3887 39.1075 21.3996C39.1279 21.4106 39.1458 21.4255 39.1603 21.4435C39.1748 21.4616 39.1855 21.4823 39.1918 21.5045C39.2037 21.5486 39.1981 21.5956 39.1762 21.6356C39.1542 21.6756 39.1176 21.7056 39.0741 21.7192C38.4226 21.9135 37.7961 22.1831 37.2073 22.5227C37.1814 22.5392 37.1513 22.5476 37.1207 22.547ZM43.1366 21.4906H43.1055C42.6022 21.4033 42.0924 21.3593 41.5816 21.359C41.4119 21.359 41.2422 21.3625 41.0759 21.3729C41.0532 21.3743 41.0304 21.3712 41.0088 21.3638C40.9873 21.3563 40.9674 21.3447 40.9503 21.3296C40.9333 21.3145 40.9194 21.2961 40.9094 21.2756C40.8995 21.2551 40.8937 21.2329 40.8924 21.2101C40.8904 21.1644 40.9063 21.1197 40.9367 21.0855C40.967 21.0512 41.0095 21.0301 41.0551 21.0265C41.2283 21.0162 41.4049 21.0127 41.5816 21.0127C42.1121 21.0125 42.6416 21.0577 43.1644 21.1478C43.2103 21.1514 43.2529 21.1732 43.2827 21.2083C43.3126 21.2434 43.3273 21.2889 43.3237 21.3348C43.32 21.3807 43.2982 21.4233 43.2632 21.4532C43.2281 21.4831 43.1826 21.4978 43.1366 21.4941V21.4906Z" fill="#1682FC"/>
<path d="M45.6513 28.3898H43.2996V26.0347H39.8639V28.3898H37.5088V31.8255H39.8639V34.1772H43.2996V31.8255H45.6513V28.3898Z" fill="#1682FC"/>
</svg>
