<svg width="55" height="55" viewBox="0 0 55 55" fill="none" xmlns="http://www.w3.org/2000/svg">
<path d="M41.5709 49.546C39.5542 50.1418 37.1709 50.4168 34.375 50.4168H20.625C17.8292 50.4168 15.4459 50.1418 13.4292 49.546C13.9334 43.5876 20.0521 38.8896 27.5 38.8896C34.9479 38.8896 41.0667 43.5876 41.5709 49.546Z" stroke="#CCCCCC" stroke-width="1.5" stroke-linecap="round" stroke-linejoin="round"/>
<path d="M34.3749 4.58301H20.6249C9.16658 4.58301 4.58325 9.16634 4.58325 20.6247V34.3747C4.58325 43.0372 7.19575 47.7809 13.4291 49.5455C13.9333 43.5872 20.052 38.8892 27.4999 38.8892C34.9478 38.8892 41.0666 43.5872 41.5707 49.5455C47.8041 47.7809 50.4166 43.0372 50.4166 34.3747V20.6247C50.4166 9.16634 45.8332 4.58301 34.3749 4.58301ZM27.4999 32.4726C22.9624 32.4726 19.2957 28.783 19.2957 24.2455C19.2957 19.708 22.9624 16.0413 27.4999 16.0413C32.0374 16.0413 35.7041 19.708 35.7041 24.2455C35.7041 28.783 32.0374 32.4726 27.4999 32.4726Z" stroke="#CCCCCC" stroke-width="1.5" stroke-linecap="round" stroke-linejoin="round"/>
<path d="M35.7042 24.2462C35.7042 28.7837 32.0376 32.4732 27.5001 32.4732C22.9626 32.4732 19.2959 28.7837 19.2959 24.2462C19.2959 19.7087 22.9626 16.042 27.5001 16.042C32.0376 16.042 35.7042 19.7087 35.7042 24.2462Z" stroke="#CCCCCC" stroke-width="1.5" stroke-linecap="round" stroke-linejoin="round"/>
</svg>
